PathFileType	4	(X/Y/Z)	C:/Users/opensim2020/Desktop/walking_exp_matlab/subject02_walking07_straight_02.trc																																																																																																																																																				
DataRate	CameraRate	NumFrames	NumMarkers	Units	OrigDataRate	OrigDataStartFrame	OrigNumFrames																																																																																																																																																
100	100	5	50	mm	100	1409	210																																																																																																																																																
Frame#	Time	LFHD			RFHD			LBHD			RBHD			C7			T10			CLAV			STRN			RBAK			LSHO			LUPA			LELB			LFRM			LWRA			LWRB			LFIN			RSHO			RUPA			RELB			RFRM			RWRA			RWRB			RFIN			LASI			RASI			LPSI			RPSI			LTHI			LKNE			LTIB			LANK			LHEE			LTOE			RTHI			RKNE			RTIB			RANK			RHEE			RTOE			*39			*40			*41			*42			*43			*44			*45			*46			*47			*48			*49		
		X1	Y1	Z1	X2	Y2	Z2	X3	Y3	Z3	X4	Y4	Z4	X5	Y5	Z5	X6	Y6	Z6	X7	Y7	Z7	X8	Y8	Z8	X9	Y9	Z9	X10	Y10	Z10	X11	Y11	Z11	X12	Y12	Z12	X13	Y13	Z13	X14	Y14	Z14	X15	Y15	Z15	X16	Y16	Z16	X17	Y17	Z17	X18	Y18	Z18	X19	Y19	Z19	X20	Y20	Z20	X21	Y21	Z21	X22	Y22	Z22	X23	Y23	Z23	X24	Y24	Z24	X25	Y25	Z25	X26	Y26	Z26	X27	Y27	Z27	X28	Y28	Z28	X29	Y29	Z29	X30	Y30	Z30	X31	Y31	Z31	X32	Y32	Z32	X33	Y33	Z33	X34	Y34	Z34	X35	Y35	Z35	X36	Y36	Z36	X37	Y37	Z37	X38	Y38	Z38	X39	Y39	Z39	X40	Y40	Z40	X41	Y41	Z41	X42	Y42	Z42	X43	Y43	Z43	X44	Y44	Z44	X45	Y45	Z45	X46	Y46	Z46	X47	Y47	Z47	X48	Y48	Z48	X49	Y49	Z49	X50	Y50	Z50
																																																																																																																																																							
79	0.78	-39.16963	1717.8573	925.43921	-53.89347	1699.18787	1067.29614	-170.21005	1644.62915	903.34216	-196.13222	1624.66772	1043.5033	-230.58588	1501.3208	968.51605	-277.70383	1224.56604	984.17139	-90.22431	1434.98633	971.14655	-35.51183	1264.15515	983.91388	-290.54453	1324.71936	1028.7356	-139.49042	1477.01123	796.68634	-93.60664	1286.67236	709.54663	-37.36702	1155.0033	690.54443	51.68206	1054.32788	696.41125	164.10402	995.50897	750.23901	133.92598	964.99878	713.99121	191.82643	933.79211	716.25372	-172.80434	1468.31946	1161.50525	-232.49548	1283.78369	1237.3938	-237.11716	1139.16406	1258.60828	-228.34448	1021.74176	1288.93591	-193.24243	889.22131	1287.76697	-246.19585	893.69824	1307.63208	-220.28438	826.05927	1319.79297	-61.33813	959.70203	848.51001	-36.16655	958.69965	1104.82202	-261.66803	1008.04211	951.55432	-257.68216	1007.56879	1064.34802	-196.40408	661.93683	811.89209	-275.13687	474.48706	846.30469	-395.93698	320.86652	851.16699	-469.44614	105.50715	887.15228	-510.76675	90.71922	938.47723	-326.05518	33.84304	883.26758	-38.41509	661.61786	1189.66003	17.55846	462.16882	1148.96545	27.62197	274.0307	1153.69128	68.93748	86.43583	1124.77832	53.22308	32.8381	1066.16028	229.37886	57.07992	1145.49561	-148.80659	1784.73291	1004.93231	-2845.927	1034.06921	3357.26025	NaN	NaN	NaN	NaN	NaN	NaN	NaN	NaN	NaN	NaN	NaN	NaN	NaN	NaN	NaN	NaN	NaN	NaN	NaN	NaN	NaN	NaN	NaN	NaN	NaN	NaN	NaN
80	0.79	-29.97871	1717.51855	927.39642	-44.04597	1698.84534	1069.60327	-160.18698	1644.13818	905.72766	-186.27609	1624.20862	1046.28699	-220.81992	1500.02991	970.89386	-266.87378	1223.76904	986.87781	-79.9688	1434.23694	973.24915	-24.65813	1263.90771	985.99146	-279.65451	1323.5498	1030.73743	-129.90004	1475.84131	798.74023	-86.09978	1284.54333	711.66565	-31.77368	1152.26514	692.71295	56.18911	1049.82507	698.29565	167.29527	989.20239	751.68494	136.46484	959.23969	715.50909	193.39746	926.91492	717.73358	-162.53058	1467.27356	1163.9198	-221.74773	1282.48694	1239.86182	-225.94571	1137.7959	1261.18628	-216.69772	1020.40076	1291.50793	-181.0154	888.06555	1290.4126	-233.92177	892.24829	1310.22583	-207.72221	824.95416	1322.58655	-49.50268	958.56696	850.90466	-24.35952	958.5379	1107.25134	-250.0965	1006.59277	954.67303	-245.58517	1006.51709	1067.37573	-186.08046	661.534	813.54077	-265.25607	474.63773	847.09937	-389.12222	323.57401	851.68201	-467.15097	109.70138	886.32825	-508.48892	96.13336	937.61462	-325.76572	33.81239	883.00922	-26.08557	662.03619	1191.99927	27.94574	461.96396	1151.70789	36.53905	273.83917	1154.42932	75.74177	86.5663	1127.38977	56.17389	34.75751	1068.69629	235.2943	50.83828	1145.60486	-139.22614	1784.01929	1007.3252	-2845.05835	1034.20471	3360.17188	NaN	NaN	NaN	NaN	NaN	NaN	NaN	NaN	NaN	NaN	NaN	NaN	NaN	NaN	NaN	NaN	NaN	NaN	NaN	NaN	NaN	NaN	NaN	NaN	NaN	NaN	NaN
81	0.8	-20.00923	1717.54858	929.99457	-34.0802	1698.82227	1072.13367	-150.35123	1644.24695	908.01575	-176.06674	1623.65051	1048.06763	-210.99417	1499.32874	973.32349	-256.00064	1223.29736	989.30536	-69.68246	1434.14172	975.38293	-13.9486	1264.04077	988.11884	-270.00641	1323.11841	1033.24255	-120.44859	1475.00488	800.56976	-78.49017	1282.66101	713.96045	-26.27862	1149.53137	695.18463	59.51346	1045.61829	700.19678	170.01414	982.7677	753.11041	138.69374	953.38428	717.08533	194.58266	920.13214	719.11151	-152.08513	1466.23303	1166.38831	-210.72763	1281.30322	1242.35742	-214.44269	1136.57727	1263.80627	-204.74467	1019.24176	1294.10803	-168.42401	887.20789	1293.09302	-221.48354	891.15033	1312.77441	-194.73824	823.91785	1325.29639	-37.23747	957.61737	853.71143	-12.69027	958.61383	1109.80029	-238.51949	1005.52252	957.74933	-233.3367	1006.30597	1070.70215	-175.09966	661.43451	815.31451	-254.59033	475.00156	847.75012	-381.60867	326.75049	852.16949	-464.24768	114.44028	885.3924	-505.29065	102.01536	936.7182	-325.42346	33.73129	882.79883	-15.00911	663.07556	1194.85645	40.01915	463.65302	1154.32813	46.8043	275.56659	1159.20166	81.53735	86.48853	1129.34839	58.49497	35.74028	1070.1554	239.16344	47.54398	1145.99158	-129.54396	1783.74536	1009.5376	-2845.19995	1033.87732	3360.30249	NaN	NaN	NaN	NaN	NaN	NaN	NaN	NaN	NaN	NaN	NaN	NaN	NaN	NaN	NaN	NaN	NaN	NaN	NaN	NaN	NaN	NaN	NaN	NaN	NaN	NaN	NaN
82	0.81	-10.18909	1718.37622	932.29163	-24.22743	1699.20581	1074.41211	-140.41841	1644.32642	910.50787	-166.5697	1624.23657	1051.19739	-200.79401	1499.45618	975.71844	-245.20854	1223.14355	991.43665	-59.55281	1434.46631	977.51855	-3.23627	1264.56226	990.35034	-259.33813	1323.12952	1035.66357	-111.06666	1474.62036	802.34406	-71.03027	1280.98462	716.45117	-20.94557	1147.03015	697.83752	63.16579	1041.30737	702.51825	172.02432	976.07117	754.52032	139.55913	947.40845	718.58057	195.72624	912.98981	720.46259	-141.75967	1465.82043	1168.94946	-199.35387	1280.43665	1244.91235	-202.57936	1135.70386	1266.46155	-192.40689	1018.3642	1296.68323	-155.50887	886.62854	1295.68457	-208.64459	890.20038	1315.10437	-181.48622	823.58917	1328.12061	-25.2778	956.81641	856.34784	-1.02713	959.14594	1112.51245	-226.59166	1004.8725	960.58533	-221.09512	1007.29596	1074.03015	-163.59064	661.46899	817.24701	-242.87819	475.53989	848.26208	-373.16312	330.33591	852.51404	-460.75919	119.78552	884.3194	-501.63382	108.94579	935.78345	-324.98187	33.72843	882.48157	-4.78017	664.49884	1197.89783	53.42966	466.18121	1155.96765	58.14011	278.02014	1162.5459	84.20278	86.9547	1129.77344	59.07649	36.33951	1070.43359	239.66197	44.2561	1146.57776	-119.66283	1784.34766	1012.25433	-2845.94824	1034.15063	3357.39429	NaN	NaN	NaN	NaN	NaN	NaN	NaN	NaN	NaN	NaN	NaN	NaN	NaN	NaN	NaN	NaN	NaN	NaN	NaN	NaN	NaN	NaN	NaN	NaN	NaN	NaN	NaN
83	0.82	-0.30447	1718.68909	934.6582	-14.23655	1699.64832	1076.90039	-130.55858	1645.13928	912.88385	-156.59898	1624.75586	1053.79163	-190.44576	1500.2207	978.21765	-234.48752	1223.24231	993.38898	-49.52731	1435.06091	979.59808	7.52601	1265.4425	992.53986	-248.76189	1323.42456	1038.83386	-101.66563	1474.61572	804.05145	-63.70472	1279.71045	719.01031	-15.85168	1144.86353	700.70325	65.39784	1037.28723	704.67584	173.33304	969.27527	755.96667	139.93649	941.5329	720.14191	194.74956	905.62476	721.81781	-131.19931	1465.66187	1171.58423	-187.5977	1279.94092	1247.27795	-190.28699	1135.24121	1269.08301	-179.62843	1017.9834	1299.26965	-142.21689	886.54993	1298.21228	-195.37781	889.82849	1317.70129	-167.71956	823.33319	1330.84058	-13.19609	956.50391	859.45612	10.73625	959.85791	1115.2887	-214.58673	1004.94379	963.18823	-209.13284	1009.17682	1077.22656	-151.32057	661.57312	819.16516	-230.03267	476.16891	848.67468	-363.54175	334.17877	852.62671	-456.67038	125.74759	883.17816	-496.97461	116.38512	934.57581	-324.41858	33.85201	882.06866	5.34187	665.95026	1200.00574	66.93789	468.38193	1156.73132	68.60836	279.78394	1164.77966	85.42017	88.11086	1129.17786	59.20664	36.73948	1070.79102	240.6259	42.38101	1144.56665	-109.63606	1784.80701	1014.83173	-2845.18042	1033.98035	3360.26416	NaN	NaN	NaN	NaN	NaN	NaN	NaN	NaN	NaN	NaN	NaN	NaN	NaN	NaN	NaN	NaN	NaN	NaN	NaN	NaN	NaN	NaN	NaN	NaN	NaN	NaN	NaN
